<svg id="Layer_1" xmlns="http://www.w3.org/2000/svg" viewBox="0 0 722 665"><style>.st0{fill:#7befb2}.st1{fill:#fff}</style><path class="st0" d="M670.8 413.8h-4.9v5.1h4.9v1.3h-10.6v-1.3h4.4v-5.1h-4.4v-1.3h10.6v1.3zM664.9 405.9h-1.7v-1.7h1.7v1.7zm5.9 0h-1.7v-1.7h1.7v1.7zM670.8 399.4h-1.1l-5.2-4.2c-.5-.4-1-.6-1.5-.6-1.1 0-1.7.6-1.7 1.7 0 .9.5 1.8 1.9 1.8v1.3c-1.8 0-3-1.2-3-3.1 0-1.1.5-2 1.2-2.6.5-.3 1-.5 1.6-.5.8 0 1.5.3 2.2.9l4.4 3.5V393h1.2v6.4zM670.1 385.5c.6.6.9 1.4.9 2.5 0 1-.4 1.8-.9 2.4-.5.5-1.3.9-2.2.9V390c.6 0 1.1-.2 1.4-.5.3-.3.6-.8.6-1.4s-.2-1.2-.6-1.5c-.3-.3-.8-.5-1.3-.5-1.3 0-1.9.9-1.9 2.1v.6h-1.2v-.6c0-1.2-.7-1.9-1.8-1.9-.5 0-.9.2-1.2.5s-.5.7-.5 1.3.2 1 .4 1.3c.3.4.8.6 1.5.6v1.3c-1 0-1.8-.4-2.3-1s-.8-1.3-.8-2.2c0-.9.3-1.7.8-2.2s1.1-.8 2-.8c1 0 2 .7 2.4 1.5.4-1.1 1.5-1.7 2.6-1.7.8-.2 1.5 0 2.1.6zM664.4 379.2l-.7.4c-.3-.8-.8-1-1.7-1v.9h-1.8v-1.8h1.8c1.1 0 1.9.4 2.4 1.5zm0 3l-.7.4c-.3-.8-.8-1-1.7-1v.9h-1.8v-1.8h1.8c1.1 0 1.9.4 2.4 1.5z"/><path class="st1" d="M501.5 172.9h-.2s-.1 0-.1-.1c-.1-.1-.1-.2-.1-.3s0-.2.1-.3l.1-.1h.3s.1 0 .1.1l.1.1v.1c0 .1 0 .2-.1.3l-.2.2c.1 0 0 0 0 0zM537.2 208.6c-.3 0-.5-.1-.8-.2l-5.3-3.2c-.2-.1-.2-.3-.1-.5s.3-.2.5-.1l5.3 3.2c.4.2.9.1 1.1-.3.2-.4.1-.9-.3-1.1l-5.4-3.2c-.2-.1-.2-.3-.1-.5s.3-.2.5-.1l5.4 3.2c.7.4 1 1.4.5 2.1-.2.4-.8.7-1.3.7zM442 589c-.1 0-.2 0-.2-.1-.2-.1-.2-.4 0-.5.1-.1.2-.2.4-.2l1.2-.2c2.1-.4 4.3-.7 6.4-1.4 2.8-.9 4.8-2.6 6.3-4.1 1.9-1.8 3.6-3.8 5.2-5.8.6-.7 1.1-1.3 1.6-2 1.1-1.3 2.2-2.7 3.4-4 .1-.2.4-.2.5 0 .2.1.2.4 0 .5-1.2 1.3-2.3 2.7-3.3 4-.5.7-1.1 1.4-1.6 2-1.6 1.9-3.3 4-5.3 5.8-1.6 1.6-3.7 3.3-6.6 4.3-2.1.7-4.4 1.1-6.5 1.5l-1.1.2h-.4zM601.6 589c-.1 0-.2 0-.3-.1l-1.1-.2c-2.1-.4-4.4-.7-6.5-1.5-2.9-1-5-2.7-6.6-4.3-1.9-1.9-3.7-3.9-5.3-5.8-.6-.7-1.1-1.3-1.6-2-1.1-1.3-2.2-2.7-3.3-4-.1-.2-.1-.4 0-.5.2-.1.4-.1.5 0 1.2 1.3 2.3 2.7 3.4 4 .5.7 1.1 1.4 1.6 2 1.6 1.9 3.3 3.9 5.2 5.8 1.6 1.5 3.6 3.2 6.3 4.1 2.1.7 4.3 1.1 6.4 1.4l1.2.2c.2 0 .3.1.4.2.1.2.1.4 0 .5-.1.2-.2.2-.3.2zM606.6 267.3c-.1 0-.3 0-.4-.1-.2-.1-.2-.3-.1-.5s.3-.2.5-.1c.1-.2.3-.2.5-.1s.2.3.1.5-.3.3-.6.3c.1 0 0 0 0 0z"/><path class="st1" d="M571.3 175c-9.7-1-19.5-1.7-29.3-2.1h-1c-12.8-.5-25.7-.5-38.5 0h-1c-9.7.4-19.6 1.1-29.2 2.1-.2 0-.4-.1-.4-.3s.1-.4.3-.4c9.7-1 19.5-1.7 29.3-2.1h1c12.8-.5 25.8-.5 38.5 0h1c9.7.4 19.6 1.1 29.3 2.1.2 0 .4.2.3.4.1.1-.1.3-.3.3zM593.6 632.8H450c-.6 0-1.2-.1-1.9-.2-.3-.1-.5-.1-.8-.2-.7-.2-1.3-.5-1.9-1l-3.6-2.5c-.2-.1-.3-.3-.3-.6 0-.2.2-.4.4-.4s.4.2.4.4l3.5 2.5c.6.4 1.1.7 1.8.9.2.1.5.1.7.2.6.1 1.1.2 1.7.2h143.6c1.6 0 2.9-.4 4.3-1.3l3.4-2.4c0-.2.2-.4.4-.4s.4.2.4.4-.1.4-.3.6l-3.4 2.4c-1.6 1-3 1.4-4.8 1.4z"/><path class="st1" d="M601.9 628.8H441.7c-.1 0-.2 0-.3-.1l-1.9-1.3c-.2-.1-.3-.3-.3-.5v-.6-36.9c0-.4.2-.7.6-.8l1.7-.3h160.6l1.7.3c.4.1.6.3.6.8v37.5c0 .2-.1.4-.3.6l-1.9 1.3c-.1-.1-.2 0-.3 0zm-160.1-.8h160l1.9-1.3v-37.4l-1.7-.3H441.6l-1.6.3v37.4l1.8 1.3zM606.4 267.2c-.1 0-.1 0-.2-.1l-92.6-55.7c-.9-.5-1.7-1.2-2.5-1.9s-1.5-1.5-2.1-2.3-1.2-1.7-1.6-2.7c-.4-.9-.8-1.9-1.1-3-.3-1-.4-2.1-.5-3.1-.1-1.1 0-2.1.2-3.1s.4-2.1.8-3.1.8-1.9 1.4-2.8 1.2-1.8 1.9-2.5c.7-.8 1.5-1.5 2.3-2.1.8-.6 1.8-1.2 2.7-1.6 1-.4 2-.8 3-1.1s2.1-.4 3.1-.5c1 0 2.1 0 3.1.2s2.1.4 3 .8 1.9.8 2.8 1.3l92.6 55.7c.2.1.3.3.3.5s0 .4-.1.6l-15.7 26.2c-.1.2-.3.2-.5.1-.1.1-.2.2-.3.2zm-92.5-56.4l92.7 55.7 15.7-26.2-36.3-21.8-56.4-33.9c-.8-.5-1.8-.9-2.7-1.3-.9-.3-1.9-.6-2.9-.7-1-.1-2-.2-3-.2s-2 .2-3 .4-1.9.6-2.8 1-1.8.9-2.6 1.5-1.6 1.3-2.2 2c-.7.7-1.3 1.5-1.8 2.4s-1 1.8-1.3 2.7-.6 1.9-.7 2.9-.2 2-.1 3c0 1 .2 2 .4 3s.6 1.9 1 2.8c.4.9.9 1.8 1.5 2.6s1.3 1.5 2 2.2c.8.8 1.6 1.4 2.5 1.9z"/><path class="st1" d="M521.8 210.1c-6.7 0-12.1-5.4-12.1-12.1s5.4-12.1 12.1-12.1c3.2 0 6.3 1.3 8.6 3.5 2.3 2.3 3.5 5.3 3.5 8.6 0 6.6-5.4 12.1-12.1 12.1zm0-23.5c-6.3 0-11.4 5.1-11.4 11.4s5.1 11.4 11.4 11.4 11.4-5.1 11.4-11.4c0-3-1.2-5.9-3.3-8-2.2-2.2-5.1-3.4-8.1-3.4z"/><path class="st1" d="M603.7 571.2H439.9c-.2 0-.3-.1-.4-.2-.2-.1-.2-.3-.2-.5V175.2c0-.3.1-.6.4-.8.2-.2.4-.2.7-.2h163.2c.3 0 .5.1.7.2.2.2.4.5.4.8v53.6c0 .2-.2.4-.4.4s-.4-.2-.4-.4v-53.6c0-.1 0-.1-.1-.2-.1 0-.1-.1-.2-.1H440.2c-.1 0-.1 0-.2.1s-.1.1-.1.2v395.3l.1-.1h163.7l-.1-.1V265.4c0-.2.2-.4.4-.4s.4.2.4.4v305c0 .2-.1.4-.2.5-.2.2-.3.3-.5.3z"/><path class="st1" d="M522.3 251.9c0 .7-.6 1.3-1.3 1.3s-1.3-.6-1.3-1.3.6-1.3 1.3-1.3c.7 0 1.3.6 1.3 1.3zm-2.1 0c0 .4.4.8.8.8s.8-.4.8-.8-.4-.8-.8-.8c-.5 0-.8.3-.8.8zm1.3 4.8l-1.8 1.2v.5h3.5v-.5h-2.6l1.7-1.2v-.1l-1.7-1.2h2.6v-.4h-3.5v.5l1.8 1.2zm-1.8-8.3v.5h3.5v-2.4h-.5v1.9h-3zm2-4v-1.9h-.5v1.9h-1.1v-2.1h-.5v2.6h3.5v-2.6h-.5v2.1h-.9zm-2-6.7v.7l2 1.9h-2v.5h3.5v-.5h-1l-.7-.7 1.6-1.3v-.6l-2 1.6-1.4-1.6zm2-3.7c.7 0 1.1.3 1.1 1 0 .6-.4 1-1.1 1h-2v.5h2c1 0 1.5-.6 1.5-1.5s-.6-1.5-1.6-1.5h-2v.5h2.1zm-2-2.8v.5h3.5v-2.4h-.5v1.9h-3zm3-3.6h-1.1v-1.9h-.5v1.9H520v-2.1h-.5v2.6h3.5v-2.6h-.5v2.1h.2zM228.9 391.2c-.9 0-1.7 0-2.6-.1-22.4-1.4-39.4-20.8-38-43.1.7-10.8 5.6-20.7 13.7-27.9 8.1-7.2 18.6-10.7 29.4-10 10.8.7 20.7 5.6 27.9 13.7s10.7 18.6 10 29.4c-1.2 21.4-19.1 38-40.4 38zm0-80.5c-9.7 0-18.9 3.5-26.3 9.9-8 7-12.8 16.8-13.5 27.4-1.4 21.9 15.3 40.9 37.3 42.3 21.9 1.4 40.9-15.3 42.3-37.3.7-10.6-2.8-20.9-9.9-28.9-7-8-16.8-12.8-27.4-13.5-.8.1-1.7.1-2.5.1z"/><path class="st1" d="M228.8 512c-41.5 0-80.7-15.6-111-44.3-31.2-29.7-49.1-69.8-50.2-112.9s14.6-84 44.2-115.3 69.7-49.1 112.8-50.3c43.1-1.1 84 14.6 115.3 44.2 31.3 29.7 49.1 69.7 50.3 112.8s-14.6 84-44.2 115.3c-29.7 31.3-69.7 49.1-112.8 50.3-1.5.1-2.9.2-4.4.2zm.2-322.1c-1.4 0-2.9 0-4.3.1-42.9 1.1-82.8 18.9-112.3 50s-45.2 71.9-44 114.8c1.1 42.9 18.9 82.8 50 112.3s71.9 45.2 114.8 44c42.9-1.1 82.8-18.9 112.3-50s45.2-71.9 44-114.8c-1.1-42.9-18.9-82.8-50-112.3-30.1-28.5-69.2-44.1-110.5-44.1z"/><path class="st1" d="M228.9 477.6c-33.2 0-64.5-12.7-88.4-35.8-24.3-23.6-38-55.3-38.5-89.2s12.2-66 35.8-90.3 55.3-38 89.2-38.5 66 12.2 90.3 35.8 38 55.3 38.5 89.2-12.2 66-35.8 90.3c-23.6 24.3-55.3 38-89.2 38.5h-1.9zM102.7 352.5c.5 33.7 14.1 65.2 38.3 88.7s56.1 36.1 89.8 35.6 65.2-14.1 88.7-38.3c23.5-24.2 36.1-56.1 35.6-89.8S341 283.5 316.8 260c-24.2-23.5-56.1-36.1-89.8-35.6-69.6 1-125.4 58.5-124.3 128.1zM207.4 222.4c-2.1 0-3.9-1.4-4.3-3.4l-3.9-19.5c0-.2.1-.4.3-.4s.4.1.4.3l3.9 19.5c.3 1.7 1.8 2.8 3.6 2.8h.1c1.2 0 2.5-.1 3.7-.3s2.5-.4 3.7-.7c.3-.1.8-.3 1.1-.4.3-.2.5-.3.7-.5.3-.2.5-.5.7-.8.4-.7.6-1.3.5-2.1l-1.3-19.8c0-.2.1-.4.3-.4s.4.1.4.3l1.3 19.8c.1.9-.1 1.7-.7 2.5-.2.4-.5.7-.8 1-.2.2-.5.4-.8.6l-.1.1c-.3.2-.9.4-1.3.5-1.2.3-2.5.6-3.8.7-1.1.1-2.4.2-3.7.2z"/><path class="st1" d="M228.9 506.4C143 506.4 73 436.5 73 350.5s70-155.8 155.9-155.8 155.9 69.9 155.9 155.9-69.9 155.8-155.9 155.8zm0-310.9c-85.5 0-155.1 69.6-155.1 155.1s69.6 155.1 155.1 155.1S384 436.1 384 350.6s-69.6-155.1-155.1-155.1z"/><path class="st1" d="M228.1 220.9c-1.3 0-2.5-.1-3.8-.2-2.1-.2-3.8-1.9-3.9-4l-1.3-19.8c0-.2.1-.4.3-.4s.4.1.4.3l1.3 19.8c.1 1.7 1.5 3.1 3.3 3.3 1.2.2 2.5.2 3.8.2 1.2 0 2.5-.1 3.7-.2.3 0 .8-.2 1.1-.3s.6-.3.8-.4c.3-.2.5-.4.8-.7.5-.6.8-1.2.8-2l1.3-19.8c0-.2.2-.4.4-.3.2 0 .4.2.3.4l-1.3 19.8c-.1.9-.4 1.7-1 2.4-.3.3-.6.6-.9.8-.3.2-.5.3-.8.5h-.1c-.4.1-.9.3-1.3.3-1.3.2-2.6.3-3.9.3.1 0 0 0 0 0zM112.7 452c-.1 0-.2 0-.3-.1-.1-.2-.1-.4 0-.5l14.9-13.1c1.3-1.1 1.5-3.1.6-4.6-.6-1.1-1.3-2.1-2.1-3.1s-1.6-1.9-2.5-2.8c-.2-.2-.6-.5-.9-.7s-.6-.3-.8-.4c-.3-.1-.7-.2-1-.2-.8 0-1.4.1-2.1.6l-16.5 11c-.2.1-.4.1-.5-.1s-.1-.4.1-.5l16.5-11c.8-.5 1.5-.7 2.5-.7.4 0 .8.1 1.2.2.3.1.6.2.9.4 0 0 .1 0 .1.1.3.2.8.6 1.1.8.9.9 1.7 1.9 2.5 2.9s1.5 2.1 2.2 3.2c1.1 1.8.8 4.2-.8 5.5l-14.8 13c-.1.1-.2.1-.3.1zM249 222.2c-1.3 0-2.6-.1-3.9-.3-1.3-.2-2.5-.4-3.8-.7-2.1-.5-3.5-2.4-3.4-4.4l1.3-19.8c0-.2.2-.4.4-.3.2 0 .4.2.3.4l-1.3 19.8c-.1 1.7 1.1 3.2 2.8 3.7 1.2.3 2.5.6 3.7.7 1.2.2 2.5.3 3.7.3.3 0 .8-.1 1.1-.1.4-.1.6-.2.8-.3l.9-.6c.6-.5.9-1.1 1.1-1.8l3.9-19.5c0-.2.2-.3.4-.3s.3.2.3.4l-3.9 19.5c-.2.9-.6 1.6-1.3 2.3-.3.3-.6.5-1 .7-.3.1-.6.3-.9.4h-.1c-.2-.2-.8-.1-1.1-.1zM100.5 436c-.1 0-.2-.1-.3-.2-.1-.2-.1-.4.1-.5l16.5-11c1.4-.9 1.9-2.8 1.2-4.5-.5-1.2-1.1-2.3-1.7-3.4s-1.3-2.1-2.1-3.1l-.8-.8c-.3-.2-.5-.4-.8-.5-.3-.2-.6-.3-1-.3-.8-.1-1.4-.1-2.1.3l-17.8 8.8c-.2.1-.4 0-.5-.2s0-.4.2-.5l17.8-8.8c.8-.4 1.6-.5 2.6-.4.4.1.8.2 1.2.4.3.1.6.3.8.5l.1.1c.3.2.7.7 1 1 .8 1 1.5 2.1 2.1 3.2s1.2 2.3 1.7 3.4c.8 2 .2 4.2-1.5 5.4l-16.5 11s-.1.1-.2.1zM266.2 226h-.7c-1.3-.2-2.5-.4-3.8-.8-1.2-.3-2.5-.7-3.6-1.2-2-.8-3.1-2.8-2.8-4.8l3.9-19.5c0-.2.2-.3.4-.3s.3.2.3.4l-3.9 19.5c-.3 1.7.6 3.4 2.3 4 1.2.5 2.4.9 3.6 1.2s2.4.6 3.7.8h1.2c.4-.1.6-.1.9-.2.3-.1.6-.3.9-.5.7-.5 1-1 1.3-1.7l6.4-18.8c.1-.2.3-.3.5-.2s.3.3.2.5l-6.4 18.8c-.3.9-.8 1.5-1.6 2.1-.3.2-.7.4-1.1.6-.3.1-.6.2-.9.2h-.1c-.2-.2-.4-.1-.7-.1zM90.5 418.5c-.1 0-.3-.1-.3-.2-.1-.2 0-.4.2-.5l17.8-8.8c1.5-.8 2.3-2.5 1.8-4.3-.3-1.2-.7-2.4-1.2-3.5-.5-1.2-1-2.3-1.6-3.4-.2-.3-.5-.7-.7-.9-.3-.3-.5-.4-.7-.6-.3-.2-.6-.3-1-.4-.8-.2-1.4-.2-2.1 0l-18.8 6.4c-.2.1-.4 0-.5-.2s0-.4.2-.5l18.8-6.4c.9-.3 1.7-.3 2.6 0 .4.1.8.3 1.1.5.3.2.5.4.7.6l.1.1c.3.3.6.8.8 1.1.6 1.1 1.2 2.3 1.7 3.5s.9 2.4 1.3 3.6c.6 2.1-.3 4.2-2.2 5.1l-17.8 8.8h-.2zM282.8 231.9c-.4 0-1-.1-1.3-.2-1.2-.3-2.5-.8-3.6-1.3-1.2-.5-2.3-1.1-3.5-1.7-1.9-1-2.8-3.2-2.1-5.2l6.4-18.8c.1-.2.3-.3.5-.2s.3.3.2.5l-6.4 18.8c-.5 1.6.2 3.4 1.8 4.3 1.1.6 2.2 1.2 3.4 1.6 1.2.5 2.4.9 3.6 1.2.3.1.8.2 1.1.2.4 0 .6 0 .9-.1s.7-.2 1-.4c.7-.4 1.2-.8 1.5-1.5l8.8-17.8c.1-.2.3-.3.5-.2s.3.3.2.5l-8.8 17.8c-.4.8-1 1.4-1.8 1.8-.4.2-.8.3-1.2.4-.3.1-.6.1-.9.1l-.3.2zM82.9 399.8c-.2 0-.3-.1-.4-.3-.1-.2 0-.4.2-.5l18.8-6.4c1.6-.5 2.6-2.2 2.3-4-.2-1.2-.4-2.5-.8-3.7-.3-1.2-.7-2.4-1.2-3.6-.1-.3-.4-.8-.6-1-.2-.3-.4-.5-.6-.7l-.9-.6c-.7-.3-1.4-.4-2.1-.3l-19.5 3.9c-.2 0-.4-.1-.4-.3s.1-.4.3-.4l19.5-3.9c.9-.2 1.7-.1 2.6.3.4.2.7.4 1.1.7.2.2.5.4.7.7l.1.1c.2.3.5.8.7 1.2.5 1.2.9 2.4 1.2 3.7.3 1.2.6 2.5.8 3.8.3 2.1-.9 4.1-2.8 4.8l-19 6.5c.1 0 .1 0 0 0zM298.5 240h-.7c-.4 0-1-.2-1.3-.4-1.2-.5-2.3-1.1-3.4-1.7-1.1-.6-2.2-1.3-3.2-2.1-1.7-1.3-2.3-3.6-1.4-5.4l8.8-17.8c.1-.2.3-.3.5-.2s.3.3.2.5l-8.8 17.8c-.7 1.5-.3 3.4 1.2 4.5 1 .8 2.1 1.4 3.1 2.1 1.1.6 2.2 1.2 3.4 1.7.3.1.8.3 1.1.3h.9c.4 0 .7-.1 1-.2.8-.3 1.3-.7 1.7-1.3l11-16.5c.1-.2.3-.2.5-.1s.2.3.1.5l-11 16.5c-.5.8-1.2 1.3-2 1.6l-1.2.3c-.2-.1-.3-.1-.5-.1zM77.8 380.4c-.2 0-.3-.1-.4-.3 0-.2.1-.4.3-.4l19.5-3.9c1.7-.3 2.9-1.9 2.8-3.7 0-1.2-.1-2.5-.3-3.7-.2-1.2-.4-2.5-.7-3.7-.1-.3-.3-.8-.4-1.1-.2-.3-.3-.5-.5-.7-.2-.3-.5-.5-.8-.7-.7-.4-1.3-.6-2.1-.5L75.4 363c-.2 0-.4-.1-.4-.4 0-.2.1-.4.4-.4l19.8-1.3c.9-.1 1.7.1 2.5.7.4.2.7.5 1 .8.2.2.4.5.6.8v.1c.2.3.4.9.5 1.3.3 1.2.6 2.5.7 3.8.2 1.3.3 2.6.3 3.8 0 2.1-1.4 4-3.4 4.4h-.1l-19.5 3.8zM313 250.1h-.2c-.3 0-.6-.1-.9-.1h-.1c-.4-.1-.9-.3-1.3-.5-1.1-.6-2.2-1.4-3.2-2.2s-2-1.6-2.9-2.5c-1.5-1.5-1.8-3.8-.7-5.5l11-16.5c.1-.2.3-.2.5-.1s.2.3.1.5l-11 16.5c-.9 1.4-.7 3.3.6 4.6.9.9 1.8 1.7 2.8 2.5s2 1.5 3.1 2.1c.3.2.8.4 1.1.4.4.1.6.1.9.1.4 0 .7 0 1-.1.8-.2 1.3-.5 1.8-1.1l13.1-14.9c.1-.2.4-.2.5 0 .2.1.2.4 0 .5l-13.1 14.9c-.6.7-1.3 1.1-2.2 1.3-.2.1-.6.1-.9.1zM75.2 360.4c-.2 0-.4-.2-.4-.4s.1-.4.3-.4l19.8-1.3c1.7-.1 3.1-1.5 3.3-3.3.2-1.2.2-2.5.2-3.7s-.1-2.5-.2-3.8c0-.3-.2-.8-.3-1.1-.1-.3-.3-.6-.4-.8-.2-.3-.4-.5-.7-.8-.6-.5-1.2-.8-2-.8L75 342.7c-.2 0-.4-.2-.3-.4 0-.2.2-.4.4-.3l19.8 1.3c.9.1 1.7.4 2.4 1 .3.3.6.6.8.9.2.3.3.5.5.8v.1c.1.4.3.9.3 1.3.2 1.3.2 2.6.2 3.8 0 1.3-.1 2.6-.2 3.8-.2 2.1-1.9 3.8-4 3.9l-19.7 1.5c.1 0 0 0 0 0zM326 262c-.3 0-.5 0-.8-.1s-.6-.1-.9-.3h-.1c-.4-.1-.9-.5-1.2-.7-1-.8-2-1.6-2.9-2.6-.9-.9-1.8-1.9-2.6-2.9-1.3-1.7-1.3-4 0-5.6l13.1-14.9c.1-.2.4-.2.5 0 .2.1.2.4 0 .5L318 250.3c-1.1 1.3-1.1 3.2 0 4.6a33.29 33.29 0 0 0 5.3 5.3c.2.2.7.5 1 .6l.9.3c.3.1.7.1 1 0 .8-.1 1.4-.3 2-.8l14.9-13.1c.2-.1.4-.1.5 0 .1.2.1.4 0 .5L328.8 261c-.7.6-1.4.9-2.4 1h-.4zM95.4 341.5h-.3l-19.8-1.3c-.2 0-.4-.2-.3-.4 0-.2.2-.4.4-.3l19.8 1.3c1.7.1 3.2-1.1 3.7-2.8.3-1.2.6-2.4.7-3.7.2-1.2.3-2.5.3-3.7 0-.3-.1-.8-.1-1.1-.1-.4-.2-.6-.3-.8l-.6-.9c-.5-.6-1.1-.9-1.8-1.1l-19.5-3.9c-.2 0-.3-.2-.3-.4s.2-.3.4-.3l19.5 3.9c.9.2 1.6.6 2.3 1.3.3.3.5.6.7 1 .1.3.3.6.4.9v.1c.1.4.2 1 .2 1.4 0 1.3-.1 2.6-.3 3.8-.2 1.3-.4 2.5-.7 3.8-.8 1.9-2.5 3.2-4.4 3.2zM337.3 275.4h-.2c-.4 0-.8-.1-1.2-.2-.3-.1-.6-.2-.9-.4l-.1-.1c-.3-.2-.8-.6-1.1-.8-.9-.9-1.7-1.9-2.5-2.9s-1.5-2.1-2.2-3.2c-1.1-1.8-.8-4.2.8-5.5l14.9-13.1c.2-.1.4-.1.5 0 .1.2.1.4 0 .5l-14.9 13.1c-1.3 1.1-1.5 3.1-.6 4.6.6 1.1 1.3 2.1 2.1 3.1s1.6 1.9 2.5 2.8c.2.2.6.5.9.7s.6.3.8.4c.3.1.7.2 1 .2.8 0 1.4-.1 2.1-.6l16.5-11c.2-.1.4-.1.5.1s.1.4-.1.5l-16.5 11c-.7.6-1.4.8-2.3.8zM98.2 324.2c-.3 0-.5 0-.8-.1L78 320.3c-.2 0-.3-.2-.3-.4s.2-.3.4-.3l19.5 3.9c1.7.3 3.4-.6 4-2.3.5-1.2.9-2.4 1.2-3.6.3-1.2.6-2.4.8-3.7v-1.2c-.1-.4-.1-.6-.2-.9s-.3-.6-.5-.9c-.5-.7-1-1-1.7-1.3l-18.8-6.4c-.2-.1-.3-.3-.2-.5.1-.2.3-.3.5-.2l18.8 6.4c.9.3 1.5.8 2.1 1.6.2.3.4.7.6 1.1.1.3.2.6.2.9v.1c.1.4 0 1 0 1.4-.2 1.3-.4 2.5-.8 3.8-.3 1.2-.7 2.5-1.2 3.6-.8 1.7-2.4 2.8-4.2 2.8zM346.8 290.3c-.3 0-.5 0-.8-.1-.4-.1-.8-.2-1.2-.4-.3-.1-.6-.3-.8-.5l-.1-.1c-.3-.2-.7-.7-1-1-.8-1-1.5-2.1-2.1-3.2s-1.2-2.3-1.7-3.4c-.8-2-.2-4.2 1.5-5.4l16.5-11c.2-.1.4-.1.5.1s.1.4-.1.5l-16.5 11c-1.4.9-1.9 2.8-1.2 4.5.5 1.2 1.1 2.3 1.7 3.4s1.3 2.1 2.1 3.1l.8.8c.3.2.5.4.8.5.3.2.6.3 1 .3.8.1 1.4.1 2.1-.3l17.8-8.8c.2-.1.4 0 .5.2s0 .4-.2.5l-17.8 8.8c-.6.3-1.2.5-1.8.5zM103.3 307.4c-.4 0-.9-.1-1.3-.2l-18.8-6.4c-.2-.1-.3-.3-.2-.5.1-.2.3-.3.5-.2l18.8 6.4c1.6.5 3.4-.2 4.3-1.8.6-1.1 1.2-2.2 1.6-3.4.5-1.2.9-2.4 1.2-3.6.1-.3.2-.8.2-1.1 0-.4 0-.6-.1-.9s-.2-.7-.4-1c-.4-.7-.8-1.2-1.5-1.5l-17.8-8.8c-.2-.1-.3-.3-.2-.5.1-.2.3-.3.5-.2l17.8 8.8c.8.4 1.4 1 1.8 1.8.2.4.3.8.4 1.2.1.3.1.6.1.9v.1c0 .4-.1 1-.2 1.3-.3 1.2-.8 2.5-1.3 3.6-.5 1.2-1.1 2.3-1.7 3.5-.6 1.7-2.1 2.5-3.7 2.5zM354.2 306.2c-.4 0-.8-.1-1.3-.2-.4-.1-.8-.3-1.1-.5-.3-.2-.5-.4-.7-.6l-.1-.1c-.3-.3-.6-.8-.8-1.1-.6-1.1-1.2-2.3-1.7-3.5s-.9-2.4-1.3-3.6c-.6-2.1.3-4.2 2.2-5.1l17.8-8.8c.2-.1.4 0 .5.2s0 .4-.2.5l-17.8 8.8c-1.5.8-2.3 2.5-1.8 4.3.3 1.2.7 2.4 1.2 3.6s1 2.3 1.6 3.4c.2.3.5.7.7.9.3.3.5.4.7.6.3.2.6.3 1 .4.8.2 1.4.2 2.1 0L374 299c.2-.1.4 0 .5.2s0 .4-.2.5l-18.8 6.4c-.5 0-.9.1-1.3.1zM110.6 291.4c-.6 0-1.2-.1-1.8-.4L91 282.2c-.2-.1-.3-.3-.2-.5.1-.2.3-.3.5-.2l17.8 8.8c1.5.7 3.4.3 4.5-1.2.8-1 1.4-2.1 2.1-3.1.6-1.1 1.2-2.2 1.7-3.4.1-.3.3-.8.3-1.1v-.9c0-.4-.1-.7-.2-1-.3-.8-.7-1.3-1.3-1.7l-16.5-11c-.2-.1-.2-.3-.1-.5s.3-.2.5-.1l16.5 11c.8.5 1.3 1.2 1.6 2l.3 1.2v1.1c0 .4-.2 1-.4 1.3-.5 1.2-1.1 2.3-1.7 3.4s-1.3 2.2-2.1 3.2c-1 1.3-2.4 1.9-3.7 1.9zM359.4 323c-.6 0-1.1-.1-1.7-.4-.4-.2-.7-.4-1.1-.7-.2-.2-.5-.4-.7-.7l-.1-.1c-.2-.3-.5-.8-.7-1.2-.5-1.2-.9-2.4-1.2-3.6-.3-1.2-.6-2.5-.8-3.8-.3-2.1.9-4.1 2.8-4.8l18.8-6.4c.2-.1.4 0 .5.2s0 .4-.2.5l-18.8 6.4c-1.6.6-2.6 2.2-2.3 4 .2 1.2.4 2.5.8 3.7.3 1.2.7 2.4 1.2 3.6.1.3.4.8.6 1 .2.3.4.5.6.7l.9.6c.7.3 1.4.4 2.1.3l19.5-3.9c.2 0 .4.1.4.3 0 .2-.1.4-.3.4l-19.5 3.9h-.8zM119.9 276.5c-.8 0-1.6-.2-2.3-.7l-16.5-11c-.2-.1-.2-.3-.1-.5s.3-.2.5-.1l16.5 11c1.4.9 3.3.7 4.6-.6.9-.9 1.7-1.8 2.5-2.8s1.5-2 2.1-3.1c.2-.3.4-.8.4-1.1.1-.4.1-.6.1-.9 0-.4 0-.7-.1-1-.2-.8-.5-1.3-1.1-1.8l-14.9-13.1c-.2-.1-.2-.4 0-.5.1-.2.4-.2.5 0l14.9 13.1c.7.6 1.1 1.3 1.3 2.2.1.4.1.8.1 1.2 0 .3-.1.6-.1.9v.1c-.1.4-.3.9-.5 1.3-.6 1.1-1.4 2.2-2.2 3.2-.8 1-1.6 2-2.5 2.9-.9.9-2.1 1.3-3.2 1.3zM362.4 340.3c-.8 0-1.5-.2-2.2-.7-.4-.2-.7-.5-1-.8-.2-.2-.4-.5-.6-.8l-.1-.1c-.2-.3-.4-.9-.5-1.3-.3-1.2-.6-2.5-.7-3.8-.2-1.3-.3-2.6-.3-3.8 0-2.1 1.4-4 3.4-4.4l19.5-3.9c.2 0 .4.1.4.3 0 .2-.1.4-.3.4l-19.5 3.9c-1.7.3-2.9 1.9-2.8 3.7 0 1.3.1 2.5.3 3.7.2 1.2.4 2.5.7 3.7.1.3.3.8.4 1.1.2.3.3.5.5.7.2.3.5.5.8.7.7.4 1.3.6 2.1.5l19.8-1.3c.2 0 .4.1.4.3 0 .2-.1.4-.3.4l-19.8 1.3c0 .2-.1.2-.2.2zM131 263c-1 0-2-.3-2.8-1l-14.9-13.1c-.2-.1-.2-.4 0-.5.1-.2.4-.2.5 0l14.9 13.1c1.3 1.1 3.2 1.1 4.6 0a33.29 33.29 0 0 0 5.3-5.3c.2-.2.5-.7.6-1l.3-.9c.1-.3.1-.7 0-1-.1-.8-.3-1.4-.8-2l-13.1-14.9c-.1-.2-.1-.4 0-.5.2-.1.4-.1.5 0l13.1 14.9c.6.7.9 1.4 1 2.4 0 .4 0 .8-.1 1.3-.1.3-.1.6-.3.9v.1c-.1.4-.5.9-.7 1.2-.8 1-1.6 2-2.6 2.9-.9.9-1.9 1.8-2.9 2.6-.6.4-1.6.8-2.6.8zM382.8 359.1s-.1 0 0 0l-19.9-1.3c-.9-.1-1.7-.4-2.4-1-.3-.3-.6-.6-.8-.9-.2-.3-.3-.5-.5-.8v-.1c-.1-.3-.3-.9-.3-1.3-.2-1.3-.2-2.6-.2-3.8 0-1.3.1-2.6.2-3.8.2-2.1 1.9-3.8 4-3.9l19.8-1.3c.2 0 .4.1.4.3s-.1.4-.3.4l-19.8 1.3c-1.7.1-3.1 1.5-3.3 3.3-.2 1.2-.2 2.5-.2 3.8 0 1.2.1 2.5.2 3.8 0 .3.2.8.3 1.1.1.3.3.6.4.8.2.3.4.5.7.8.6.5 1.2.8 2 .8l19.8 1.3c.2 0 .4.2.4.4-.2 0-.3.1-.5.1zM143.9 251c-1.2 0-2.4-.5-3.2-1.4l-13.1-14.9c-.1-.2-.1-.4 0-.5.2-.1.4-.1.5 0l13.1 14.9c1.1 1.3 3 1.5 4.6.6 1.1-.6 2.1-1.3 3.1-2.1s1.9-1.6 2.8-2.5c.2-.2.5-.6.7-.9.2-.3.3-.6.4-.8.1-.3.2-.7.2-1 0-.8-.1-1.4-.6-2.1l-11-16.5c-.1-.2-.1-.4.1-.5s.4-.1.5.1l11 16.5c.5.8.7 1.5.7 2.5 0 .4-.1.8-.2 1.2-.1.3-.2.6-.4.9l-.1.1c-.2.3-.6.8-.8 1.1-.9.9-1.9 1.7-2.9 2.5s-2.1 1.5-3.2 2.2c-.6.4-1.4.6-2.2.6zM380.4 379.1s-.1 0 0 0l-19.6-3.9c-.9-.2-1.6-.6-2.3-1.3-.3-.3-.5-.6-.7-1-.1-.3-.3-.6-.4-.9v-.1c-.1-.4-.2-1-.2-1.3 0-1.3.1-2.6.3-3.8.2-1.3.4-2.5.7-3.8.5-2.1 2.4-3.5 4.4-3.4l19.8 1.3c.2 0 .4.2.3.4s-.2.4-.4.3l-19.8-1.3c-1.7-.1-3.2 1.1-3.7 2.8-.3 1.2-.6 2.5-.7 3.7-.2 1.2-.3 2.5-.3 3.7 0 .3.1.8.1 1.1.1.4.2.6.3.8l.6.9c.5.6 1.1.9 1.8 1.1l19.5 3.9c.2 0 .3.2.3.4.3.3.2.4 0 .4zM158.2 240.8c-1.4 0-2.8-.7-3.6-1.9l-11-16.5c-.1-.2-.1-.4.1-.5.2-.1.4-.1.5.1l11 16.5c.9 1.4 2.8 1.9 4.5 1.2 1.2-.5 2.3-1.1 3.4-1.7 1.1-.6 2.1-1.3 3.1-2.1l.8-.8c.2-.3.4-.5.5-.8.2-.3.3-.6.3-1 .1-.8.1-1.4-.3-2.1l-8.8-17.8c-.1-.2 0-.4.2-.5s.4 0 .5.2l8.8 17.8c.4.8.5 1.6.4 2.6-.1.4-.2.8-.4 1.2-.1.3-.3.6-.5.8l-.1.1c-.2.3-.7.7-1 1-1 .8-2.1 1.5-3.2 2.1-1.1.6-2.3 1.2-3.4 1.7-.6.2-1.2.4-1.8.4zM375.4 398.7h-.1l-18.8-6.4c-.9-.3-1.5-.8-2.1-1.6-.2-.3-.4-.7-.6-1.1-.1-.3-.2-.6-.2-.9v-.1c-.1-.4 0-1 0-1.4.2-1.3.4-2.5.8-3.8.3-1.2.7-2.5 1.2-3.6.8-2 2.8-3.1 4.8-2.8l19.4 3.9c.2 0 .3.2.3.4s-.2.3-.4.3l-19.5-3.9h-.1c-1.7-.3-3.3.7-4 2.3-.5 1.2-.9 2.4-1.2 3.6-.3 1.2-.6 2.4-.8 3.7v1.2c.1.4.1.6.2.9s.3.6.5.9c.5.7 1 1 1.7 1.3l18.8 6.4c.2.1.3.3.2.5.2.1.1.2-.1.2zM173.7 232.5c-1.6 0-3.2-.9-3.9-2.3l-8.8-17.8c-.1-.2 0-.4.2-.5s.4 0 .5.2l8.8 17.8c.8 1.5 2.5 2.3 4.3 1.8 1.2-.3 2.4-.7 3.5-1.2 1.2-.5 2.3-1 3.4-1.6.3-.2.7-.5.9-.7.3-.3.4-.5.6-.7.2-.3.3-.6.4-1 .2-.8.2-1.4 0-2.1l-6.4-18.8c-.1-.2 0-.4.2-.5s.4 0 .5.2l6.4 18.8c.3.9.3 1.7 0 2.6-.1.4-.3.8-.5 1.1s-.4.5-.6.7l-.1.1c-.3.3-.8.6-1.1.8-1.1.6-2.3 1.2-3.5 1.7s-2.4.9-3.6 1.3c-.3.1-.8.1-1.2.1zM367.9 417.4h-.2l-17.8-8.8c-.8-.4-1.4-1-1.8-1.8-.2-.4-.3-.8-.4-1.2-.1-.3-.1-.6-.1-.9v-.1c0-.4.1-1 .2-1.3.3-1.2.8-2.5 1.3-3.6.5-1.2 1.1-2.3 1.7-3.5 1-1.9 3.2-2.8 5.2-2.1l18.8 6.4c.2.1.3.3.2.5-.1.2-.3.3-.5.2l-18.8-6.4c-1.6-.5-3.4.2-4.3 1.8-.6 1.1-1.2 2.2-1.6 3.4-.5 1.2-.9 2.3-1.2 3.6-.1.3-.2.8-.2 1.1 0 .4 0 .6.1.9s.2.7.4 1c.4.7.8 1.2 1.5 1.5l17.8 8.8c.2.1.3.3.2.5-.2-.1-.3 0-.5 0zM190.2 226.4c-1.9 0-3.5-1.1-4.1-2.9l-6.4-18.8c-.1-.2 0-.4.2-.5s.4 0 .5.2l6.4 18.8c.6 1.6 2.2 2.6 4 2.3 1.2-.2 2.5-.4 3.7-.8 1.2-.3 2.4-.7 3.6-1.2.3-.1.8-.4 1-.6.3-.2.5-.4.7-.6l.6-.9c.3-.7.4-1.4.3-2.1l-3.9-19.5c0-.2.1-.4.3-.4s.4.1.4.3l3.9 19.5c.2.9.1 1.7-.3 2.6-.2.4-.4.7-.7 1.1-.2.2-.4.5-.7.7l-.1.1c-.3.2-.8.5-1.2.7-1.2.5-2.4.9-3.6 1.2-1.2.3-2.5.6-3.8.8-.4-.1-.6 0-.8 0zM126.9 466.3c-.1 0-.2 0-.2-.1-.2-.1-.2-.4 0-.5l13.1-14.9c1.1-1.3 1.1-3.2 0-4.6a33.29 33.29 0 0 0-5.3-5.3c-.2-.2-.7-.5-1-.6l-.9-.3c-.3-.1-.7-.1-1 0-.8.1-1.4.3-2 .8l-14.9 13.1c-.2.1-.4.1-.5 0-.1-.2-.1-.4 0-.5l14.9-13.1c.7-.6 1.4-.9 2.4-1 .4 0 .8 0 1.3.1.3.1.6.1.9.3h.1c.4.1.9.5 1.2.7 1 .8 2 1.6 2.9 2.6.9.9 1.8 1.9 2.6 2.9 1.3 1.7 1.3 4 0 5.6l-13.1 14.9c-.3-.2-.4-.1-.5-.1zM358.1 434.9c-.1 0-.1 0-.2-.1l-16.5-11c-.8-.5-1.3-1.2-1.6-2l-.3-1.2v-1.1c0-.4.2-1 .4-1.3.5-1.2 1.1-2.3 1.7-3.4s1.3-2.2 2.1-3.2c1.3-1.7 3.6-2.3 5.4-1.4l17.8 8.8c.2.1.3.3.2.5-.1.2-.3.3-.5.2l-17.8-8.8c-1.5-.7-3.4-.3-4.5 1.2-.8 1-1.4 2.1-2.1 3.1-.6 1.1-1.2 2.2-1.7 3.4-.1.3-.3.8-.3 1.1v.9c0 .4.1.7.2 1 .3.8.7 1.3 1.3 1.7l16.5 11c.2.1.2.3.1.5 0 .1-.1.1-.2.1zM142.8 478.6c-.1 0-.1 0-.2-.1-.2-.1-.2-.3-.1-.5l11-16.5c.9-1.4.7-3.3-.6-4.6-.9-.9-1.8-1.7-2.8-2.5s-2-1.5-3.1-2.1c-.3-.2-.8-.4-1.1-.4-.4-.1-.6-.1-.9-.1-.4 0-.7 0-1 .1-.8.2-1.3.5-1.8 1.1l-13.1 14.9c-.1.2-.4.2-.5 0-.2-.1-.2-.4 0-.5l13.1-14.9c.6-.7 1.3-1.1 2.2-1.3.4-.1.8-.1 1.2-.1.3 0 .6.1.9.1h.1c.4.1.9.3 1.3.5 1.1.7 2.2 1.4 3.2 2.2 1 .8 2 1.6 2.9 2.5 1.5 1.5 1.8 3.8.7 5.5l-11 16.5c-.1.2-.2.2-.4.2zM346 451.1c-.1 0-.2 0-.2-.1l-14.9-13.1c-.7-.6-1.1-1.3-1.3-2.2-.1-.4-.1-.8-.1-1.2 0-.3.1-.6.1-.9v-.1c.1-.4.3-.9.5-1.3.6-1.1 1.4-2.2 2.2-3.2.8-1 1.6-2 2.5-2.9 1.5-1.5 3.8-1.8 5.5-.7l16.5 11c.2.1.2.3.1.5s-.3.2-.5.1l-16.5-11c-1.4-.9-3.3-.7-4.6.6-.9.9-1.7 1.8-2.5 2.8s-1.5 2-2.1 3.1c-.2.3-.4.8-.4 1.1-.1.4-.1.6-.1.9 0 .4 0 .7.1 1 .2.8.5 1.3 1.1 1.8l14.9 13.1c.2.1.2.4 0 .5-.1.1-.2.2-.3.2zM160.2 488.8h-.2c-.2-.1-.3-.3-.2-.5l8.8-17.8c.7-1.5.3-3.4-1.2-4.5-1-.7-2.1-1.4-3.1-2.1-1.1-.6-2.2-1.2-3.4-1.7-.3-.1-.8-.3-1.1-.3h-.9c-.4 0-.7.1-1 .2-.8.3-1.3.7-1.7 1.3l-11 16.5c-.1.2-.3.2-.5.1s-.2-.3-.1-.5l11-16.5c.5-.8 1.2-1.3 2-1.6l1.2-.3h1.1c.4 0 1 .2 1.3.4 1.2.5 2.3 1.1 3.4 1.7 1.1.6 2.2 1.3 3.2 2.1 1.7 1.3 2.3 3.6 1.4 5.4l-8.8 17.8c.1.2 0 .3-.2.3zM331.9 465.5c-.1 0-.2 0-.3-.1l-13.1-14.9c-.6-.7-.9-1.4-1-2.4 0-.4 0-.8.1-1.3.1-.3.1-.6.3-.9v-.1c.1-.4.5-.9.7-1.2.8-1 1.6-2 2.6-2.9.9-.9 1.9-1.8 2.9-2.6 1.7-1.3 4-1.3 5.6 0l14.9 13.1c.2.1.2.4 0 .5-.1.2-.4.2-.5 0l-14.9-13.1c-1.3-1.1-3.2-1.1-4.6 0a33.29 33.29 0 0 0-5.3 5.3c-.2.2-.5.7-.6 1l-.3.9c-.1.3-.1.7 0 1 .1.8.3 1.4.8 2l13.1 14.9c.1.2.1.4 0 .5-.2.3-.3.3-.4.3zM178.8 496.5h-.1c-.2-.1-.3-.3-.2-.5l6.4-18.8c.5-1.6-.2-3.4-1.8-4.3-1.1-.6-2.2-1.2-3.4-1.6-1.2-.5-2.3-.9-3.6-1.2-.3-.1-.8-.2-1.1-.2h-.1c-.3 0-.5 0-.8.1s-.7.2-1 .4c-.7.4-1.2.8-1.5 1.5l-8.8 17.8c-.1.2-.3.3-.5.2-.2-.1-.3-.3-.2-.5l8.8-17.8c.4-.8 1-1.4 1.8-1.8.4-.2.8-.3 1.2-.4.3-.1.6-.1.9-.1h.1c.4 0 1 .1 1.3.2 1.2.3 2.5.8 3.6 1.3 1.2.5 2.3 1.1 3.5 1.7 1.9 1 2.8 3.2 2.1 5.2l-6.4 18.8c.1-.1 0 0-.2 0zM316.1 478c-.1 0-.2-.1-.3-.2l-11-16.5c-.5-.8-.7-1.5-.7-2.5 0-.4.1-.8.2-1.2.1-.3.2-.6.4-.9l.1-.1c.2-.3.6-.8.8-1.1.9-.9 1.9-1.7 2.9-2.5s2.1-1.5 3.2-2.2c1.8-1.1 4.2-.8 5.5.8l13.1 14.9c.1.2.1.4 0 .5-.2.1-.4.1-.5 0l-13.1-14.9c-1.1-1.2-3-1.5-4.6-.6-1.1.6-2.1 1.3-3.1 2.1s-1.9 1.6-2.8 2.5c-.2.2-.6.6-.7.9-.2.3-.3.6-.4.8-.1.3-.2.7-.2 1 0 .8.1 1.4.6 2.1l11 16.5c.1.2.1.4-.1.5-.2.1-.2.1-.3.1zM198.2 501.8c-.3 0-.4-.2-.4-.4l3.9-19.5c.3-1.7-.6-3.4-2.3-4-1.2-.5-2.4-.9-3.6-1.2-1.2-.3-2.4-.6-3.7-.8h-1.2c-.4.1-.6.1-.9.2-.3.1-.6.3-.9.5-.7.5-1 1-1.3 1.7l-6.4 18.8c-.1.2-.3.3-.5.2-.2-.1-.3-.3-.2-.5l6.4-18.8c.3-.9.8-1.5 1.6-2.1.3-.2.7-.4 1.1-.6.3-.1.6-.2.9-.2h1.5c1.3.2 2.5.4 3.8.8 1.2.3 2.5.7 3.6 1.2 2 .8 3.1 2.8 2.8 4.8l-3.9 19.5c.1.3-.1.4-.3.4zM298.8 488.3c-.1 0-.3-.1-.3-.2l-8.8-17.8c-.4-.8-.5-1.6-.4-2.6.1-.4.2-.8.4-1.2.1-.3.3-.6.5-.8l.1-.1c.2-.3.7-.7 1-1 1-.8 2.1-1.5 3.2-2.1s2.3-1.2 3.4-1.7c2-.8 4.2-.2 5.4 1.5l11 16.5c.1.2.1.4-.1.5s-.4.1-.5-.1l-11-16.5c-.9-1.4-2.8-1.9-4.5-1.2-1.1.5-2.3 1.1-3.4 1.7s-2.1 1.3-3.1 2.1l-.8.8c-.2.3-.4.5-.5.8-.2.3-.3.6-.3 1-.1.8-.1 1.4.3 2.1l8.8 17.8c.1.2 0 .4-.2.5h-.2zM218.2 504.6c-.2 0-.4-.2-.4-.4l1.3-19.8c.1-1.7-1.1-3.2-2.8-3.7-1.2-.3-2.5-.6-3.7-.7-1.2-.2-2.5-.3-3.7-.3-.3 0-.8.1-1.1.1-.3.1-.6.2-.8.3l-.9.6c-.6.5-.9 1.1-1.1 1.8l-3.9 19.5c0 .2-.2.3-.4.3s-.3-.2-.3-.4l3.9-19.5c.2-.9.6-1.6 1.3-2.3.3-.3.6-.5 1-.7.3-.1.6-.3.9-.4h.1c.4-.1 1-.2 1.4-.2 1.3 0 2.6.1 3.8.3 1.3.2 2.5.4 3.8.7 2.1.5 3.5 2.4 3.4 4.4l-1.3 19.8c-.1.4-.3.6-.5.6zM280.2 496.2c-.2 0-.3-.1-.4-.3l-6.4-18.8c-.3-.9-.3-1.7 0-2.6.1-.4.3-.8.5-1.1.2-.3.4-.5.6-.7l.1-.1c.3-.3.8-.6 1.1-.8 1.1-.6 2.3-1.2 3.5-1.7s2.4-.9 3.6-1.3c2.1-.6 4.2.3 5.1 2.2l8.8 17.8c.1.2 0 .4-.2.5s-.4 0-.5-.2l-8.8-17.8c-.8-1.5-2.6-2.3-4.3-1.8-1.2.3-2.4.8-3.6 1.2-1.2.5-2.3 1-3.4 1.6-.3.2-.7.5-.9.7-.3.3-.4.5-.6.7-.2.3-.3.6-.4 1-.2.8-.2 1.4 0 2.1l6.4 18.8c.1.2 0 .4-.2.6.1 0 .1 0 0 0zM220.8 504.8c-.1 0-.1 0 0 0-.2 0-.4-.2-.4-.4l1.3-19.8c.1-.9.4-1.7 1-2.4.3-.3.6-.6.9-.8.3-.2.5-.3.8-.5h.1c.4-.1.9-.3 1.3-.4 1.3-.2 2.5-.2 3.8-.2s2.6.1 3.8.2c2.1.2 3.8 1.9 3.9 4l1.3 19.8c0 .2-.1.4-.3.4s-.4-.1-.4-.3l-1.3-19.8c-.1-1.7-1.5-3.1-3.3-3.3-1.2-.1-2.5-.2-3.7-.2h-.1c-1.2 0-2.5.1-3.7.2-.3 0-.8.2-1.1.3-.3.1-.6.3-.8.4-.3.2-.5.4-.8.7-.5.6-.8 1.2-.8 2l-1.3 19.8c.1.1 0 .3-.2.3zM240.9 504.5c-.2 0-.4-.2-.4-.4l-1.3-19.8c-.1-.9.1-1.7.7-2.5.2-.4.5-.7.8-1 .2-.2.5-.4.8-.6l.1-.1c.3-.2.9-.4 1.3-.5 1.2-.3 2.5-.6 3.8-.7 1.3-.2 2.6-.3 3.8-.3 2.1 0 4 1.4 4.4 3.4l3.9 19.5c0 .2-.1.4-.3.4-.2 0-.4-.1-.4-.3l-3.9-19.5c-.3-1.7-1.9-2.9-3.7-2.8-1.3 0-2.5.1-3.7.3-1.2.2-2.5.4-3.7.7-.3.1-.8.3-1.1.4-.3.2-.5.3-.7.5-.3.2-.5.5-.7.8-.4.7-.6 1.3-.5 2.1l1.3 19.8c-.1.5-.3.6-.5.6zM260.8 501.7c-.2 0-.3-.1-.4-.3l-3.9-19.5c-.2-.9-.1-1.7.3-2.6.2-.4.4-.7.7-1.1.2-.2.4-.5.7-.7l.1-.1c.3-.2.8-.5 1.2-.7 1.2-.5 2.4-.9 3.7-1.2 1.2-.3 2.5-.6 3.8-.8 2.1-.3 4.1.9 4.8 2.8l6.4 18.8c.1.2 0 .4-.2.5s-.4 0-.5-.2l-6.4-18.8c-.6-1.6-2.2-2.6-4-2.3-1.2.2-2.5.4-3.7.8-1.2.3-2.4.7-3.6 1.2-.3.1-.8.4-1 .6-.3.2-.5.4-.7.6l-.6.9c-.3.7-.4 1.4-.3 2.1l3.9 19.5c.2.2 0 .4-.3.5.1 0 .1 0 0 0zM235.2 516.7c-.2 0-.4-.2-.4-.4v-.1c0-.2.2-.4.4-.4s.4.2.4.4v.1c0 .2-.2.4-.4.4zM222.6 516.7c-.2 0-.4-.2-.4-.4v-.1c0-.2.2-.4.4-.4s.4.2.4.4v.1c0 .2-.2.4-.4.4z"/><path class="st1" d="M228.9 516.7c-91.6 0-166.1-74.5-166.1-166.1s74.5-166.1 166.1-166.1S395 259 395 350.6s-74.5 166.1-166.1 166.1zM63.2 350.6h.4C63.6 441.8 137.8 516 229 516s165.4-74.2 165.4-165.4S320.2 185.2 229 185.2 63.6 259.4 63.6 350.6h-.4z"/><path class="st1" d="M199.7 200.7c-.2 0-.3-.1-.4-.3 0-.2.1-.4.3-.4 2.8-.5 5.6-1 8.4-1.4 3-.4 5.9-1 8.8-1.9.1 0 .3-.1.4-.1h.4l.9-.1h.6c.2 0 .7 0 .7.4 0 .2-.1.4-.4.4-.1 0-.2 0-.3-.1h-.7l-.8.1h-.4c-.1 0-.2 0-.3.1-2.9.9-5.8 1.5-8.9 1.9-2.6.3-5.5.8-8.3 1.4zm19.4-3.8z"/><path class="st1" d="M219.6 198.1c-.2 0-.4-.2-.4-.4s.1-.4.4-.4c2.8-.2 5.7-.3 8.5-.3 3 0 6-.2 8.9-.7H238.7c.2 0 .4 0 .6.1.2 0 .7.1.7.5 0 .2-.2.4-.4.4-.1 0-.2-.1-.3-.1h-.2c-.2 0-.3-.1-.5-.1H237.1c-3 .5-6 .8-9.1.7-2.7.1-5.6.2-8.4.3zm19.7-1.1zM259.6 200.1s-.1 0 0 0c-.2 0-.3-.1-.3-.2 0 0-.1 0-.1-.1-.2-.1-.3-.1-.5-.1l-.8-.2c-.2 0-.3 0-.4-.1h-.3c-3.1.1-6 0-9.1-.5-2.8-.4-5.7-.6-8.5-.8-.2 0-.4-.2-.3-.4 0-.2.2-.4.4-.3 2.8.2 5.7.5 8.5.8 3 .4 5.9.6 9 .5h.4c.1 0 .2 0 .4.1h.1l.8.1c.2 0 .4.1.6.2.2.1.7.2.6.6-.2.2-.3.4-.5.4zm-.4-.5zm0 0zM279 205.4h-.1c-.1 0-.2-.1-.2-.2 0 0-.1 0-.1-.1-.2-.1-.3-.1-.5-.2l-.8-.3c-.2-.1-.3-.1-.4-.1s-.2-.1-.3-.1c-3.1-.3-6-.8-8.9-1.6-2.7-.7-5.5-1.4-8.3-1.9-.2 0-.3-.2-.3-.4s.2-.3.4-.3c2.8.6 5.6 1.2 8.3 1.9 2.9.8 5.8 1.3 8.8 1.6.2 0 .3 0 .4.1.1 0 .2.1.3.1h.1l.7.2c.2.1.4.1.6.2.2.1.6.3.5.7.1.3 0 .4-.2.4zm-.3-.5zm0 0z"/><path class="st1" d="M297.6 213.2h-.2c-.1 0-.2-.1-.2-.2 0 0-.1 0-.1-.1-.1-.1-.3-.2-.5-.3l-.7-.4c-.1-.1-.2-.1-.3-.2-.1 0-.2-.1-.3-.1-3-.7-5.8-1.6-8.7-2.8-2.6-1.1-5.3-2.1-8-3-.2-.1-.3-.3-.2-.5.1-.2.3-.3.5-.2 2.7.9 5.4 1.9 8 3 2.8 1.2 5.6 2.1 8.5 2.8.2 0 .3.1.4.1s.2.1.3.1l.8.4c.2.1.4.2.5.3.2.1.6.4.4.8.1.2-.1.3-.2.3zm-.3-.6zm0 0zM315 223.3c-.1 0-.1 0-.2-.1l-.2-.2-.1-.1c-.1-.1-.3-.2-.4-.3l-.7-.5-.1-.1c-.1 0-.2-.1-.3-.1-.1-.1-.2-.1-.3-.1-2.9-1.1-5.6-2.3-8.2-3.9-2.4-1.4-5-2.7-7.5-4-.2-.1-.3-.3-.2-.5.1-.2.3-.3.5-.2 2.5 1.3 5.1 2.6 7.5 4 2.6 1.5 5.3 2.8 8.1 3.8.1.1.3.1.4.2.1.1.2.1.3.2l.7.5c.2.1.3.2.5.4s.5.5.3.8c.1.1 0 .2-.1.2zm-.3-.6zm0 0zM330.9 235.6c-.1 0-.2 0-.2-.1-.1-.1-.1-.2-.1-.2l-.1-.1c-.1-.1-.2-.3-.4-.4l-.6-.5c-.1-.1-.2-.2-.3-.2-.1-.1-.2-.1-.3-.2-2.7-1.4-5.2-3.1-7.6-4.9-2.2-1.7-4.6-3.4-6.9-4.9-.2-.1-.2-.3-.1-.5s.3-.2.5-.1c2.4 1.6 4.7 3.3 7 5 2.4 1.9 4.9 3.5 7.5 4.9.1.1.3.2.4.2.1.1.2.1.3.2l.7.6c.2.1.3.3.4.4.2.2.5.5.2.8h-.4zm-.3-.6zM345.1 249.9c-.1 0-.2 0-.3-.1-.1-.1-.1-.2-.1-.3 0 0 0-.1-.1-.1-.1-.1-.2-.3-.3-.4l-.5-.6-.3-.3c-.1-.1-.2-.2-.3-.2-2.5-1.8-4.8-3.7-6.9-5.9-2-2-4.1-3.9-6.2-5.8-.2-.1-.2-.4 0-.5.1-.2.4-.2.5 0 2.1 1.9 4.2 3.8 6.2 5.8 2.1 2.2 4.4 4.1 6.8 5.8l.3.3.3.3.1.1.5.6c.1.2.3.3.4.5s.4.6.1.9c0-.1-.1-.1-.2-.1zm-.2-.6zm0 0zM357.3 266c-.1 0-.2-.1-.3-.2-.1-.1-.1-.2-.1-.3 0 0 0-.1-.1-.1-.1-.2-.2-.3-.3-.5l-.5-.7c-.1-.1-.2-.2-.2-.3-.1-.1-.1-.2-.2-.3-2.2-2.1-4.2-4.3-6.1-6.7-1.7-2.2-3.5-4.4-5.4-6.6-.1-.2-.1-.4 0-.5.2-.1.4-.1.5 0 1.9 2.1 3.7 4.4 5.4 6.6 1.8 2.4 3.8 4.6 6 6.7l.3.3c.1.1.1.2.2.3l.5.7c.1.2.2.4.3.5.1.2.3.6 0 .9.1.1.1.2 0 .2zm-.2-.7zm0 0zM367.3 283.4c-.1 0-.3-.1-.3-.2s-.1-.2 0-.3v-.1c-.1-.2-.1-.3-.2-.5l-.4-.7c-.1-.1-.1-.2-.2-.3-.1-.1-.1-.2-.2-.3-2-2.4-3.7-4.8-5.2-7.5-1.4-2.4-2.9-4.9-4.5-7.2-.1-.2-.1-.4.1-.5s.4-.1.5.1c1.6 2.4 3.1 4.8 4.5 7.3 1.5 2.6 3.2 5.1 5.1 7.4.1.1.2.2.3.4.1.1.1.2.2.3v.1l.4.7c.1.2.2.4.2.5.1.2.2.7-.1.8h-.2zm-.2-.7zm0 0zM374.9 302.1c-.2 0-.3-.1-.4-.3v-.3-.2c0-.2-.1-.3-.1-.5l-.3-.8c-.1-.1-.1-.2-.1-.3 0-.1-.1-.2-.2-.3-1.6-2.6-3-5.2-4.1-8.1-1.1-2.6-2.3-5.2-3.5-7.7-.1-.2 0-.4.2-.5s.4 0 .5.2c1.2 2.5 2.4 5.2 3.5 7.8 1.1 2.8 2.5 5.4 4.1 8 .1.1.1.3.2.4 0 .1.1.2.1.3l.3.8c.1.2.1.4.2.6s.1.7-.2.8c-.1.1-.1.1-.2.1zm-.1-.8zM380.1 321.6c-.2 0-.3-.1-.4-.3 0-.1 0-.2.1-.3v-.2c0-.2 0-.3-.1-.5v-.1l-.2-.7c0-.2-.1-.3-.1-.4s-.1-.2-.1-.3c-1.3-2.8-2.3-5.6-3.1-8.6-.7-2.7-1.6-5.5-2.5-8.1-.1-.2 0-.4.2-.5s.4 0 .5.2c.9 2.7 1.7 5.4 2.5 8.2.8 2.9 1.8 5.7 3 8.5.1.1.1.3.1.4s.1.2.1.4v.1l.2.7c0 .2.1.4.1.6.1.3.1.8-.3.9zm-.1-.8zM382.6 341.5c-.2 0-.4-.2-.4-.4 0-.1 0-.2.1-.3v-.2-.5-.1l-.1-.8v-.4c0-.1 0-.2-.1-.3-.9-2.9-1.5-5.8-1.9-8.9-.4-2.8-.9-5.6-1.4-8.4 0-.2.1-.4.3-.4.2 0 .4.1.4.3.5 2.8 1 5.6 1.4 8.4.4 3 1 5.9 1.9 8.8 0 .1.1.3.1.4v.5l.1.8v.6c.1.4 0 .9-.4.9zm0-.7zM382.5 361.7c-.2 0-.4-.2-.4-.4 0-.1.1-.2.1-.3v-.2c0-.2.1-.3.1-.5v-.8-.4-.3c-.5-3-.8-6-.7-9.1 0-2.8-.1-5.7-.3-8.5 0-.2.1-.4.4-.4.2 0 .4.1.4.4.2 2.8.3 5.7.3 8.5 0 3 .2 6 .7 8.9v.8l-.1.9c0 .2 0 .4-.1.6.1.3 0 .8-.4.8z"/><path class="st1" d="M379.8 381.6c-.3 0-.4-.2-.4-.5 0-.1.1-.2.2-.2 0 0 0-.1.1-.1.1-.2.1-.3.1-.5l.2-.8c0-.2 0-.3.1-.4v-.3c-.1-3.1 0-6 .5-9.1.4-2.8.6-5.6.8-8.5 0-.2.2-.4.4-.3.2 0 .4.2.3.4-.2 2.8-.5 5.7-.8 8.5-.4 3-.6 5.9-.5 9v.4c0 .1 0 .2-.1.4v.1l-.1.8c0 .2-.1.4-.2.6-.1.1-.2.5-.6.5zm.1-.7zM374.5 401.1h-.1c-.2-.1-.3-.3-.2-.5 0-.1.1-.2.2-.2 0 0 0-.1.1-.1.1-.2.1-.3.2-.5l.3-.8c0-.1.1-.2.1-.3 0-.1.1-.2.1-.3.3-3.1.8-6 1.6-8.9.7-2.7 1.4-5.5 1.9-8.3 0-.2.2-.3.4-.3s.3.2.3.4c-.6 2.8-1.2 5.6-1.9 8.3-.8 2.9-1.3 5.8-1.6 8.8 0 .2 0 .3-.1.4 0 .1-.1.2-.1.4v.1l-.2.7c-.1.2-.1.4-.2.6-.3.1-.5.5-.8.5zM366.8 419.6h-.2c-.2-.1-.3-.3-.2-.5 0-.1.1-.2.2-.2 0 0 0-.1.1-.1.1-.1.2-.3.3-.5l.4-.7c.1-.1.1-.2.1-.3 0-.1.1-.2.1-.3.7-3 1.6-5.8 2.8-8.7 1.1-2.6 2.1-5.3 3-8 .1-.2.3-.3.5-.2s.3.3.2.5c-.9 2.7-1.9 5.4-3 8-1.2 2.8-2.1 5.6-2.8 8.5 0 .2-.1.3-.1.4s-.1.2-.1.3l-.4.7c-.1.2-.2.4-.3.5-.2.4-.4.6-.6.6zM356.6 437c-.1 0-.2 0-.2-.1-.2-.1-.2-.3-.1-.5l.2-.2.1-.1c.1-.1.2-.3.3-.4l.5-.7c.1-.1.1-.2.2-.3.1-.1.1-.2.1-.3 1.1-2.9 2.3-5.6 3.9-8.2 1.4-2.4 2.7-5 4-7.5.1-.2.3-.3.5-.2.2.1.3.3.2.5-1.3 2.6-2.6 5.1-4 7.5-1.5 2.6-2.8 5.3-3.8 8.1-.1.1-.1.3-.2.4s-.1.2-.2.3l-.1.1-.4.6c-.1.2-.2.3-.4.5-.1.3-.3.5-.6.5zM344.3 453c-.1 0-.2 0-.3-.1-.2-.1-.2-.4 0-.5.1-.1.2-.1.2-.1l.1-.1c.1-.1.3-.2.4-.4l.5-.6c.1-.1.2-.2.2-.3.1-.1.1-.2.2-.3 1.4-2.7 3.1-5.2 4.9-7.6 1.7-2.2 3.4-4.6 4.9-6.9.1-.2.3-.2.5-.1s.2.3.1.5c-1.6 2.4-3.3 4.7-5 7-1.9 2.4-3.5 4.9-4.9 7.5-.1.1-.2.3-.2.4-.1.1-.1.2-.2.3l-.6.7c-.1.2-.3.3-.4.4 0 0-.2.2-.4.2zM330 467.2c-.1 0-.2 0-.3-.1-.1-.2-.1-.4 0-.5s.2-.1.3-.1c0 0 .1 0 .1-.1.1-.1.3-.2.4-.3l.6-.5.3-.3c.1-.1.2-.2.2-.3 1.8-2.5 3.7-4.8 5.9-6.9 2-2 3.9-4.1 5.8-6.2.1-.2.4-.2.5 0 .2.1.2.4 0 .5-1.9 2.1-3.8 4.2-5.8 6.2-2.2 2.1-4.1 4.4-5.8 6.8l-.3.3-.3.3-.1.1-.6.5c-.2.1-.3.3-.5.4 0 0-.2.2-.4.2zM314 479.4c-.1 0-.3 0-.3-.2-.1-.2-.1-.4.1-.5.1-.1.2-.1.3-.1 0 0 .1 0 .1-.1.2-.1.3-.2.5-.3h.1l.6-.4c.1-.1.2-.2.3-.2.1-.1.2-.1.3-.2 2.1-2.2 4.3-4.2 6.7-6.1 2.2-1.7 4.4-3.5 6.6-5.4.2-.1.4-.1.5 0 .1.2.1.4 0 .5-2.1 1.9-4.4 3.7-6.6 5.4-2.4 1.8-4.6 3.8-6.7 6l-.3.3c-.1.1-.2.1-.3.2h-.1l-.7.5c-.2.1-.3.2-.5.3-.3.2-.5.3-.6.3zM296.5 489.4c-.2 0-.3-.1-.4-.2-.1-.2 0-.4.2-.5h.4c.2-.1.3-.1.5-.2l.7-.4c.1-.1.2-.1.3-.2.1-.1.2-.1.3-.2 2.4-2 4.8-3.6 7.5-5.2 2.4-1.4 4.9-2.9 7.2-4.5.2-.1.4-.1.5.1s.1.4-.1.5c-2.4 1.6-4.8 3.1-7.3 4.5-2.6 1.5-5.1 3.2-7.4 5.1-.1.1-.2.2-.4.3-.1.1-.2.1-.3.2h-.1l-.7.4c-.2.1-.4.2-.6.2 0 0-.1.1-.3.1zM277.9 497c-.2 0-.4-.1-.5-.3-.1-.2 0-.4.2-.5h.5c.2 0 .3-.1.5-.1l.8-.3c.1-.1.2-.1.3-.1.1 0 .2-.1.3-.2 2.6-1.6 5.2-3 8.1-4.1 2.6-1.1 5.2-2.3 7.7-3.5.2-.1.4 0 .5.2s0 .4-.2.5c-2.5 1.2-5.2 2.4-7.8 3.5-2.8 1.1-5.4 2.5-8 4.1-.1.1-.3.1-.4.2-.1 0-.2.1-.3.1h-.1l-.8.3c-.2.1-.4.1-.6.2h-.2zM258.5 502.2c-.2 0-.5-.1-.6-.4 0-.2.1-.4.3-.4.1 0 .2 0 .3.1h.2c.2 0 .3 0 .5-.1l.8-.2c.2 0 .3-.1.4-.1s.2-.1.3-.1c2.8-1.3 5.6-2.3 8.6-3.1 2.7-.7 5.5-1.6 8.1-2.5.2-.1.4 0 .5.2s0 .4-.2.5c-2.7.9-5.4 1.7-8.2 2.5-2.9.8-5.7 1.8-8.5 3-.1.1-.3.1-.4.1s-.2.1-.4.1h-.1l-.7.2c-.2 0-.4.1-.6.1-.1 0-.2.1-.3.1zM238.9 504.7h-.2c-.2 0-.7 0-.7-.4 0-.2.1-.4.4-.4.1 0 .2 0 .3.1h.7l.8-.1h.4c.1 0 .2 0 .3-.1 2.9-.9 5.8-1.5 8.9-1.9 2.8-.4 5.6-.9 8.4-1.4.2 0 .4.1.4.3 0 .2-.1.4-.3.4-2.8.5-5.6 1-8.4 1.4-3 .4-5.9 1-8.8 1.9-.1 0-.3.1-.4.1h-.5l-.8.1h-.5zm-.2-.5zM220.3 504.8h-.3l-.9-.1c-.2 0-.4 0-.6-.1-.2 0-.7-.1-.7-.5 0-.2.2-.4.4-.4.1 0 .2.1.3.1h.2c.2 0 .3.1.5.1H220.7c3-.5 6-.8 9.1-.7 2.8 0 5.7-.1 8.5-.3.2 0 .4.1.4.4 0 .2-.1.4-.4.4-2.8.2-5.7.3-8.5.3-3 0-6 .2-8.9.7-.3.1-.4.1-.6.1zm-1.7-.6zm0 0z"/><path class="st1" d="M218.3 503.7s-.1 0 0 0c-2.9-.2-5.7-.5-8.5-.8-3-.4-5.9-.6-9-.5h-.4c-.1 0-.2 0-.4-.1h-.1l-.8-.1c-.2 0-.4-.1-.6-.2-.2-.1-.7-.2-.6-.6 0-.2.2-.3.4-.3.1 0 .2.1.2.2 0 0 .1 0 .1.1.2.1.3.1.5.1l.8.2c.2 0 .3 0 .4.1h.3c3.1-.1 6 0 9.1.5 2.8.4 5.6.6 8.5.8.2 0 .4.2.3.4.1 0 0 .2-.2.2zm-19.7-2.2zm0 0zM198.4 501c-2.9-.6-5.7-1.2-8.4-1.9-2.9-.8-5.8-1.3-8.8-1.6-.2 0-.3 0-.4-.1-.1 0-.2-.1-.4-.1l-.8-.3c-.2-.1-.4-.1-.6-.2-.2-.1-.6-.3-.5-.7.1-.2.3-.3.5-.2.1 0 .2.1.2.2 0 0 .1 0 .1.1.2.1.3.1.5.2l.8.3c.1 0 .2.1.3.1s.2.1.3.1c3.1.3 6 .8 8.9 1.6 2.7.7 5.5 1.4 8.3 1.9.2 0 .3.2.3.4 0 .1-.1.2-.3.2zm-19.2-4.7zm0 0zM179.1 495.7h-.1c-2.7-.9-5.4-1.9-8-3-2.8-1.2-5.6-2.1-8.5-2.8-.2 0-.3-.1-.4-.1-.1 0-.2-.1-.3-.1l-.7-.4c-.2-.1-.4-.2-.5-.3-.2-.1-.6-.4-.4-.8.1-.2.3-.3.5-.2.1 0 .2.1.2.2 0 0 .1 0 .1.1.1.1.3.2.5.3l.7.4h.1c.1 0 .2.1.3.1s.2.1.3.1c3 .7 5.8 1.6 8.7 2.8 2.6 1.1 5.3 2.1 8 3 .2.1.3.3.2.5-.4.1-.6.2-.7.2zm-18.5-7.2zm0 0z"/><path class="st1" d="M160.6 488h-.2c-2.6-1.3-5.1-2.6-7.5-4-2.6-1.5-5.3-2.8-8.1-3.8-.1-.1-.3-.1-.4-.2-.1-.1-.2-.1-.3-.2l-.1-.1-.6-.4c-.2-.1-.3-.2-.5-.4s-.5-.5-.3-.8c.1-.2.3-.2.5-.1l.2.2.1.1c.1.1.3.2.4.3 0 0 .1 0 .1.1l.6.4c.1.1.2.1.3.2s.2.1.3.1c2.9 1.1 5.6 2.3 8.2 3.9 2.4 1.4 5 2.7 7.5 4 .2.1.3.3.2.5-.1.1-.2.2-.4.2zm-17.4-9.6zm0 0zM143.3 477.9c-.1 0-.1 0-.2-.1-2.4-1.6-4.7-3.3-7-5-2.4-1.9-4.9-3.5-7.5-4.9-.1-.1-.3-.2-.4-.2-.1-.1-.2-.1-.3-.2l-.1-.1-.6-.5-.4-.4c-.2-.2-.5-.5-.2-.8.1-.2.4-.2.5 0 .1.1.1.2.1.2l.1.1.4.4.6.5c.1.1.2.2.3.2.1.1.2.1.3.2 2.7 1.4 5.2 3 7.6 4.9 2.2 1.7 4.6 3.4 6.9 5 .2.1.2.3.1.5.1.1-.1.2-.2.2zm-16.1-11.7zm0 0zM127.5 465.6c-.1 0-.2 0-.2-.1-2.1-1.9-4.2-3.9-6.2-5.8-2.1-2.2-4.4-4.1-6.8-5.8l-.3-.3-.3-.3-.1-.1-.5-.6c-.1-.2-.3-.3-.4-.5s-.4-.6-.1-.9c.2-.1.4-.1.5 0s.1.2.1.3c0 0 0 .1.1.1.1.1.2.3.3.4l.5.6.3.3c.1.1.2.2.3.2 2.5 1.8 4.8 3.7 6.9 5.9 2 2 4.1 3.9 6.2 5.8.2.1.2.4 0 .5-.1.3-.2.3-.3.3zM113 451.9zm0 0zM180.3 205.8c-.2 0-.3-.1-.4-.3-.1-.2 0-.4.2-.5 2.7-.9 5.4-1.7 8.2-2.5 2.9-.8 5.7-1.8 8.5-3 .1-.1.3-.1.4-.1.1 0 .2-.1.4-.1h.1l.8-.2c.2 0 .4-.1.6-.1.2 0 .7-.1.8.3 0 .2-.1.4-.3.4-.1 0-.2 0-.3-.1h-.2c-.2 0-.3 0-.5.1l-.8.2c-.2 0-.3.1-.4.1-.1 0-.2.1-.3.1-2.8 1.3-5.6 2.3-8.6 3.1-2.7.7-5.5 1.6-8.1 2.5 0 .1 0 .1-.1.1zM161.8 213.3c-.1 0-.3-.1-.3-.2-.1-.2 0-.4.2-.5 2.6-1.2 5.2-2.4 7.8-3.5 2.8-1.1 5.4-2.5 8-4.1.1-.1.3-.1.4-.2.1 0 .2-.1.3-.1l.8-.3c.2-.1.4-.1.6-.2.2-.1.7-.1.8.2.1.2 0 .4-.2.5h-.3-.2c-.2 0-.3.1-.5.1l-.8.3c-.2.1-.3.1-.4.1-.1 0-.2.1-.3.2-2.6 1.6-5.2 3-8.1 4.1-2.6 1.1-5.2 2.3-7.7 3.5 0 .1-.1.1-.1.1zM144.4 223.3c-.1 0-.2-.1-.3-.2-.1-.2-.1-.4.1-.5 2.4-1.6 4.8-3.1 7.3-4.5 2.6-1.5 5.1-3.2 7.4-5.1.1-.1.2-.2.4-.3.1-.1.2-.1.3-.2h.1l.7-.3c.2-.1.4-.2.6-.2.2-.1.7-.2.8.1.1.2 0 .4-.2.5h-.4c-.2.1-.3.1-.5.2l-.7.4c-.1.1-.2.1-.3.2-.1.1-.2.1-.3.2-2.4 2-4.8 3.6-7.5 5.2-2.4 1.4-4.9 2.9-7.2 4.5h-.3zM128.5 235.4c-.1 0-.2 0-.3-.1-.1-.2-.1-.4 0-.5 2.1-1.9 4.4-3.7 6.6-5.4 2.4-1.8 4.6-3.8 6.7-6l.3-.3c.1-.1.2-.1.3-.2l.7-.5c.2-.1.3-.2.5-.3s.6-.3.9 0c.1.2.1.4-.1.5-.1.1-.2.1-.3.1 0 0-.1 0-.1.1-.2.1-.3.2-.5.3l-.7.5c-.1.1-.2.2-.3.2-.1.1-.2.1-.3.2-2.1 2.2-4.3 4.2-6.7 6.1-2.2 1.7-4.4 3.5-6.6 5.4 0-.1-.1-.1-.1-.1z"/><path class="st1" d="M114.2 249.5c-.1 0-.2 0-.2-.1-.2-.1-.2-.4 0-.5 1.9-2.1 3.8-4.2 5.8-6.2 2.2-2.1 4.1-4.4 5.8-6.8l.3-.3.3-.3.7-.6c.2-.1.3-.3.5-.4.2-.1.6-.4.9-.1.1.2.1.4 0 .5s-.2.1-.3.1c0 0-.1 0-.1.1-.1.1-.3.2-.4.3l-.6.5-.3.3c-.1.1-.2.2-.2.3-1.8 2.5-3.7 4.8-5.9 6.9-2 2-3.9 4.1-5.8 6.2-.3.1-.4.1-.5.1zM102 265.4c-.1 0-.1 0-.2-.1-.2-.1-.2-.3-.1-.5 1.6-2.4 3.3-4.7 5-7 1.9-2.4 3.5-4.9 4.9-7.5.1-.1.2-.3.2-.4.1-.1.1-.2.2-.3l.6-.7c.1-.2.3-.3.4-.4.2-.2.5-.5.8-.2.2.1.2.4 0 .5-.1.1-.2.1-.2.1l-.1.1c-.1.1-.3.2-.4.4l-.5.6c-.1.1-.2.2-.2.3-.1.1-.1.2-.2.3-1.4 2.7-3 5.2-4.9 7.6-1.7 2.2-3.4 4.6-4.9 6.9-.2.2-.3.3-.4.3zM91.9 282.7h-.2c-.2-.1-.3-.3-.2-.5 1.3-2.5 2.6-5.1 4-7.5 1.5-2.6 2.8-5.3 3.8-8.1.1-.1.1-.3.2-.4s.1-.2.2-.3l.1-.1.4-.6c.1-.2.2-.3.4-.5s.5-.5.8-.3c.2.1.2.3.1.5l-.2.2-.1.1c-.1.1-.2.3-.3.4l-.5.7c-.1.1-.1.2-.2.3-.1.1-.1.2-.1.3-1.1 2.9-2.3 5.6-3.9 8.2-1.4 2.4-2.7 5-4 7.5 0 0-.2.1-.3.1z"/><path class="st1" d="M84.1 301.1c-.3-.1-.4-.3-.3-.5.9-2.7 1.9-5.4 3-8 1.2-2.8 2.1-5.6 2.8-8.5 0-.2.1-.3.1-.4s.1-.2.1-.3l.4-.8c.1-.2.2-.4.3-.5.1-.2.4-.6.8-.4.2.1.3.3.2.5 0 .1-.1.2-.2.2 0 0 0 .1-.1.1-.1.1-.2.3-.3.5l-.4.7c-.1.1-.1.2-.2.3 0 .1-.1.2-.1.3-.7 3-1.6 5.8-2.8 8.7-1.1 2.6-2.1 5.3-3 8 0 0-.1.1-.3.1zm6.9-18.9zM78.9 320.4s-.1 0 0 0c-.3 0-.4-.2-.4-.4.6-2.8 1.2-5.6 1.9-8.3.8-2.9 1.3-5.8 1.6-8.8 0-.2 0-.3.1-.4 0-.1.1-.2.1-.3l.3-.8c.1-.2.1-.4.2-.6s.3-.6.7-.5c.2.1.3.3.2.5 0 .1-.1.2-.2.2 0 0 0 .1-.1.1-.1.2-.1.3-.2.5l-.3.8c-.1.2-.1.3-.1.4s-.1.2-.1.3c-.3 3.1-.8 6-1.6 8.9-.7 2.7-1.4 5.5-1.9 8.3.1 0 0 .1-.2.1zm4.3-19.6zM76.2 340.3c-.2 0-.4-.2-.4-.4.2-2.8.5-5.7.8-8.5.4-3 .6-5.9.5-9v-.4c0-.1 0-.2.1-.4v-.1l.1-.8c0-.2.1-.4.2-.6s.2-.7.6-.6c.2 0 .3.2.3.4 0 .1-.1.2-.2.2 0 0 0 .1-.1.1-.1.2-.1.3-.1.5l-.2.8c0 .2 0 .3-.1.4v.3c.1 3.1 0 6-.5 9.1-.4 2.8-.6 5.7-.8 8.5.1.3 0 .5-.2.5z"/><path class="st1" d="M76.1 360.3c-.2 0-.4-.2-.4-.4-.2-2.8-.3-5.7-.3-8.5 0-3-.2-6-.7-8.9v-.4-.4l.1-.9c0-.2 0-.4.1-.6 0-.2.1-.7.5-.7.2 0 .4.2.4.4 0 .1-.1.2-.1.3v.2c0 .2-.1.3-.1.5V342.4c.5 3 .8 6 .7 9.1 0 2.8.1 5.7.3 8.5-.1.1-.3.3-.5.3zM78.6 380.2c-.2 0-.3-.1-.4-.3-.5-2.8-1-5.6-1.4-8.4-.4-3-1-5.9-1.9-8.8 0-.2-.1-.3-.1-.4v-.4l-.1-.9v-.6c0-.2 0-.7.4-.7.2 0 .4.1.4.3 0 .1 0 .2-.1.3v.7l.1.8v.4c0 .1 0 .2.1.3.9 2.9 1.5 5.8 1.9 8.9.4 2.8.9 5.6 1.4 8.4.1.1 0 .3-.3.4.1 0 0 0 0 0zm-3.3-19.8zM83.7 399.6c-.2 0-.3-.1-.4-.3-.9-2.7-1.7-5.4-2.5-8.2-.8-2.9-1.8-5.7-3-8.5-.1-.1-.1-.3-.1-.4s-.1-.2-.1-.4v-.1l-.2-.7c0-.2-.1-.4-.1-.6s-.1-.7.3-.8c.2 0 .4.1.4.3 0 .1 0 .2-.1.3v.2c0 .2 0 .3.1.5l.2.8c0 .2.1.3.1.4s.1.2.1.3c1.3 2.8 2.3 5.6 3.1 8.6.7 2.7 1.6 5.5 2.5 8.1.1.2 0 .4-.2.5h-.1zm-5.8-19.3z"/><path class="st1" d="M91.3 418.1c-.1 0-.3-.1-.3-.2-1.2-2.6-2.4-5.2-3.5-7.8-1.1-2.8-2.5-5.4-4.1-8-.1-.1-.1-.3-.2-.4 0-.1-.1-.2-.1-.3v-.1l-.3-.8c-.1-.2-.1-.4-.2-.6s-.1-.7.2-.8c.2-.1.4 0 .5.2v.5c0 .2.1.3.1.5l.3.8c.1.2.1.3.1.4s.1.2.2.3c1.6 2.6 3 5.2 4.1 8.1 1.1 2.6 2.3 5.2 3.5 7.7.1.2 0 .4-.3.5.1 0 .1 0 0 0z"/><path class="st1" d="M101.3 435.5c-.1 0-.2-.1-.3-.2-1.6-2.4-3.1-4.8-4.5-7.3-1.5-2.6-3.2-5.1-5.1-7.4-.1-.1-.2-.2-.3-.4-.1-.1-.1-.2-.2-.3v-.1l-.3-.7c-.1-.2-.2-.4-.2-.6-.1-.2-.2-.7.1-.8.2-.1.4 0 .5.2 0 .1.1.2 0 .3v.1c.1.2.1.3.2.5l.4.7c.1.2.1.2.2.3.1.1.1.2.2.3 2 2.4 3.6 4.8 5.2 7.5 1.4 2.4 2.9 4.9 4.5 7.2.1.2.1.4-.1.5-.2.2-.3.2-.3.2zm-10.6-17.1zm0 0zM113.4 451.4c-.1 0-.2 0-.3-.1-1.9-2.1-3.7-4.4-5.4-6.6-1.8-2.4-3.8-4.6-6-6.7l-.3-.3c-.1-.1-.1-.2-.2-.3l-.5-.7c-.1-.2-.2-.3-.3-.5-.1-.2-.3-.6 0-.9.2-.1.4-.1.5.1.1.1.1.2.1.3 0 0 0 .1.1.1.1.2.2.3.3.5l.5.7c.1.1.2.2.2.3.1.1.1.2.2.3 2.2 2.1 4.2 4.3 6.1 6.7 1.7 2.2 3.5 4.4 5.4 6.6.1.2.1.4 0 .5h-.4zm-12.6-15.5zm0 0zM234.5 516.6c-.2 0-.4-.2-.4-.4s.2-.4.4-.4h.7c.2 0 .4.2.4.4s-.2.4-.4.4h-.7z"/><path class="st0" d="M384.2 632.8h-110v-.7h109.2v-8.9h.8zM667.3 632.8h-9.7v-.7h8.9V445.5h.8zM667.3 355.9h-.8V173.2h-8.9v-.7h9.7zM186.9 632.8H63.3v-9.6h.8v8.9h122.8z"/><g><path class="st0" d="M212.5 632.5h-1.4l-2.4-8.6-2.5 8.6h-1.4l-2.1-10.6h1.2l1.7 8.7 2.5-8.5h1.2l2.5 8.5 1.7-8.7h1.2l-2.2 10.6zM220.2 626.5v-1.7h1.7v1.7h-1.7zm0 6v-1.7h1.7v1.7h-1.7zM232.5 631.5c-.6.7-1.6 1.1-2.7 1.1s-2.1-.4-2.7-1.1c-.4-.5-.7-1.1-.7-1.9 0-1.1.7-2.1 1.6-2.6-.9-.5-1.4-1.4-1.4-2.4 0-.9.3-1.5.9-2 .6-.5 1.4-.8 2.3-.8s1.7.3 2.3.8c.5.5.9 1.2.9 2 0 1-.6 1.9-1.4 2.4 1 .4 1.6 1.4 1.6 2.6 0 .8-.3 1.4-.7 1.9zm-2.7-3.9c-1.3 0-2.1.8-2.1 2s.9 2 2.1 2 2.1-.8 2.1-2-.7-2-2.1-2zm0-4.6c-1 0-1.9.7-1.9 1.7s.7 1.8 1.9 1.8 1.9-.8 1.9-1.8c0-1.1-.8-1.7-1.9-1.7zM235.4 632.5v-1.8h1.8v1.8h-1.8zM239.5 632.5v-1.1l4.2-5.2c.4-.5.6-1 .6-1.5 0-1.1-.6-1.7-1.7-1.7-.9 0-1.8.5-1.8 1.9h-1.3c0-1.8 1.2-3 3.1-3 1.1 0 2 .5 2.6 1.2.3.5.5 1 .5 1.6 0 .8-.3 1.5-.9 2.2l-3.5 4.4h4.6v1.2h-6.4zM253.6 631.7c-.5.6-1.3 1-2.4 1-1 0-1.8-.3-2.4-.9-.6-.6-.9-1.4-1-2.3h1.3c0 .7.2 1.1.6 1.5.3.3.8.6 1.5.6s1.2-.3 1.5-.7.5-1 .5-1.7-.2-1.4-.6-1.8c-.3-.4-.8-.6-1.4-.6-.7 0-1.4.3-1.7.9H248l.3-5.6h5.8v1.2h-4.7l-.2 3.3c.5-.7 1.3-.9 2.2-.9s1.6.3 2.1.9c.6.6.9 1.6.9 2.6.1.9-.2 1.8-.8 2.5zM256.8 626l-.4-.7c.8-.3 1-.8 1-1.7h-.9v-1.8h1.8v1.8c0 1.2-.4 2-1.5 2.4zm3 0l-.4-.7c.8-.3 1-.8 1-1.7h-.9v-1.8h1.8v1.8c-.1 1.2-.4 2-1.5 2.4z"/></g><g><path class="st0" d="M70.1 33.5c-.6.7-1.6 1.1-2.7 1.1s-2.1-.4-2.7-1.1c-.4-.5-.7-1.1-.7-1.9 0-1.1.7-2.1 1.6-2.6-.9-.5-1.4-1.4-1.4-2.4 0-.9.3-1.5.9-2s1.4-.8 2.3-.8 1.7.3 2.3.8c.5.5.9 1.2.9 2 0 1-.6 1.9-1.4 2.4 1 .4 1.6 1.4 1.6 2.6 0 .8-.3 1.4-.7 1.9zm-2.7-3.9c-1.3 0-2.1.8-2.1 2s.9 2 2.1 2 2.1-.8 2.1-2-.8-2-2.1-2zm0-4.7c-1 0-1.9.7-1.9 1.7s.7 1.8 1.9 1.8 1.9-.8 1.9-1.8-.9-1.7-1.9-1.7zM72.9 34.4v-1.8h1.8v1.8h-1.8zM78.3 34.4v-9l-2.5 1.8v-1.4l2.6-1.8h1.2v10.4h-1.3zM64.2 48.5v-1.2H79v1.2H64.2z"/></g><g><path class="st0" d="M446.4 33.5c-.6.7-1.6 1.1-2.7 1.1s-2.1-.4-2.7-1.1c-.4-.5-.7-1.1-.7-1.9 0-1.1.7-2.1 1.6-2.6-.9-.5-1.4-1.4-1.4-2.4 0-.9.3-1.5.9-2s1.4-.8 2.3-.8 1.7.3 2.3.8c.5.5.9 1.2.9 2 0 1-.6 1.9-1.4 2.4 1 .4 1.6 1.4 1.6 2.6 0 .8-.2 1.4-.7 1.9zm-2.6-3.9c-1.3 0-2.1.8-2.1 2s.9 2 2.1 2 2.1-.8 2.1-2c-.1-1.2-.8-2-2.1-2zm0-4.7c-1 0-1.9.7-1.9 1.7s.7 1.8 1.9 1.8 1.9-.8 1.9-1.8c-.1-1-.9-1.7-1.9-1.7zM449.3 34.4v-1.8h1.8v1.8h-1.8zM453.5 34.4v-1.1l4.2-5.2c.4-.5.6-1 .6-1.5 0-1.1-.6-1.7-1.7-1.7-.9 0-1.8.5-1.8 1.9h-1.3c0-1.8 1.2-3 3.1-3 1.1 0 2 .5 2.6 1.2.3.5.5 1 .5 1.6 0 .8-.3 1.5-.9 2.2l-3.5 4.4h4.6v1.2h-6.4zM440.6 48.5v-1.2h14.8v1.2h-14.8z"/></g></svg>